<svg width="15" height="16" viewBox="0 0 15 16" fill="none" xmlns="http://www.w3.org/2000/svg">
<circle cx="7.5" cy="8" r="7.5" fill="#C4C4C4"/>
<path d="M8.14598 8.00001L10.1168 6.03376C10.2031 5.94746 10.2516 5.8304 10.2516 5.70835C10.2516 5.58629 10.2031 5.46924 10.1168 5.38293C10.0305 5.29662 9.91345 5.24814 9.79139 5.24814C9.66934 5.24814 9.55228 5.29662 9.46598 5.38293L7.49973 7.35376L5.53348 5.38293C5.44717 5.29662 5.33012 5.24814 5.20806 5.24814C5.08601 5.24814 4.96895 5.29662 4.88264 5.38293C4.79634 5.46924 4.74785 5.58629 4.74785 5.70835C4.74785 5.8304 4.79634 5.94746 4.88264 6.03376L6.85348 8.00001L4.88264 9.96626C4.83969 10.0089 4.80559 10.0596 4.78232 10.1154C4.75905 10.1713 4.74707 10.2312 4.74707 10.2917C4.74707 10.3522 4.75905 10.4121 4.78232 10.4679C4.80559 10.5238 4.83969 10.5745 4.88264 10.6171C4.92525 10.6601 4.97594 10.6942 5.0318 10.7174C5.08765 10.7407 5.14756 10.7527 5.20806 10.7527C5.26857 10.7527 5.32847 10.7407 5.38433 10.7174C5.44018 10.6942 5.49087 10.6601 5.53348 10.6171L7.49973 8.64626L9.46598 10.6171C9.50859 10.6601 9.55928 10.6942 9.61513 10.7174C9.67098 10.7407 9.73089 10.7527 9.79139 10.7527C9.8519 10.7527 9.91181 10.7407 9.96766 10.7174C10.0235 10.6942 10.0742 10.6601 10.1168 10.6171C10.1598 10.5745 10.1939 10.5238 10.2171 10.4679C10.2404 10.4121 10.2524 10.3522 10.2524 10.2917C10.2524 10.2312 10.2404 10.1713 10.2171 10.1154C10.1939 10.0596 10.1598 10.0089 10.1168 9.96626L8.14598 8.00001Z" fill="black"/>
</svg>
