<?xml version="1.0" encoding="iso-8859-1"?>
<!-- Generator: Adobe Illustrator 19.0.0, SVG Export Plug-In . SVG Version: 6.00 Build 0)  -->
<svg version="1.1" id="Capa_1" xmlns="http://www.w3.org/2000/svg" xmlns:xlink="http://www.w3.org/1999/xlink" x="0px" y="0px"
	 viewBox="0 0 512 512" style="enable-background:new 0 0 512 512;" xml:space="preserve">
<g>
	<path style="fill:#FEC478;" d="M242,451L242,451c-16.569,0-30-13.431-30-30V301h60v120C272,437.569,258.569,451,242,451z"/>
	<path style="fill:#FEC478;" d="M302,421L302,421c-16.569,0-30-13.431-30-30V271h60v120C332,407.569,318.569,421,302,421z"/>
	<path style="fill:#FEC478;" d="M362,391L362,391c-16.569,0-30-13.431-30-30V241h60v120C392,377.569,378.569,391,362,391z"/>
</g>
<path style="fill:#17ACE8;" d="M512,106v15l-30,30H152l-30-30v-15c0-24.901,20.099-45,45-45h300C491.901,61,512,81.099,512,106z"/>
<path style="fill:#1689FC;" d="M512,106v15l-30,30H317V61h150C491.901,61,512,81.099,512,106z"/>
<polygon style="fill:#08469C;" points="512,121 512,181 482,211 152,211 122,181 122,121 "/>
<polygon style="fill:#063E8B;" points="512,121 512,181 482,211 317,211 317,121 "/>
<path style="fill:#17ACE8;" d="M512,181v105c0,24.901-20.099,45-45,45H167c-24.901,0-45-20.099-45-45V181H512z"/>
<path style="fill:#1689FC;" d="M512,181v105c0,24.901-20.099,45-45,45H317V181H512z"/>
<path style="fill:#A4D9F5;" d="M437,271h-60c-8.291,0-15-6.709-15-15s6.709-15,15-15h60c8.291,0,15,6.709,15,15
	C452,264.291,445.291,271,437,271z"/>
<path style="fill:#FEDBAB;" d="M0,436v-88.369c0-10.88,2.957-21.555,8.555-30.884l63.97-106.611
	c10.107-16.86,29.861-27.7,49.49-29.004L122,276.156c0,14.722,9.536,23.95,18.457,27.686c10.909,4.457,23.488,2.768,32.725-6.445
	l47.607-47.607c11.324-11.324,29.324-11.477,40.869-1.465c11.865,10.283,13.755,28.125,4.336,40.679l-120,150
	C140.34,446.547,131.243,451,121.971,451H15C6.716,451,0,444.284,0,436z"/>
<g>
</g>
<g>
</g>
<g>
</g>
<g>
</g>
<g>
</g>
<g>
</g>
<g>
</g>
<g>
</g>
<g>
</g>
<g>
</g>
<g>
</g>
<g>
</g>
<g>
</g>
<g>
</g>
<g>
</g>
</svg>
