<svg width="14" height="16" viewBox="0 0 14 16" fill="none" xmlns="http://www.w3.org/2000/svg">
<path d="M9.8404 8.7143C10.726 8.7143 11.5754 9.06612 12.2016 9.69236C12.8279 10.3186 13.1797 11.168 13.1797 12.0536C13.1797 12.9392 12.8279 13.7886 12.2016 14.4148C11.5754 15.0411 10.726 15.3929 9.8404 15.3929C8.95477 15.3929 8.10541 15.0411 7.47917 14.4148C6.85293 13.7886 6.50112 12.9392 6.50112 12.0536C6.50112 11.168 6.85293 10.3186 7.47917 9.69236C8.10541 9.06612 8.95477 8.7143 9.8404 8.7143ZM6.50112 0.366089C7.08397 0.366036 7.64465 0.589519 8.06766 0.9905C8.49066 1.39148 8.74378 1.93942 8.77487 2.52145L8.7779 2.64287H12.1172C12.2326 2.64291 12.3436 2.68674 12.4279 2.7655C12.5122 2.84426 12.5635 2.95209 12.5713 3.06719C12.5792 3.1823 12.5431 3.29609 12.4703 3.38559C12.3975 3.47509 12.2934 3.53361 12.1791 3.54934L12.1172 3.55359H11.4742L11.0893 8.30873C10.7981 8.21171 10.4965 8.14915 10.1907 8.12234L10.5611 3.55359H2.44115L3.1764 12.6194C3.20416 12.9615 3.35968 13.2806 3.61201 13.5133C3.86435 13.7459 4.19501 13.8751 4.53822 13.875L6.33901 13.8756C6.51326 14.2102 6.73426 14.5168 6.9929 14.7863L4.53822 14.7857C3.9662 14.7858 3.41512 14.5705 2.9946 14.1827C2.57408 13.7949 2.31494 13.2631 2.26872 12.6929L1.5274 3.55359H0.885045C0.775008 3.55358 0.668694 3.51373 0.585765 3.44141C0.502837 3.36908 0.448903 3.26917 0.433937 3.16016L0.429688 3.09823C0.429692 2.98819 0.469542 2.88188 0.541868 2.79895C0.614193 2.71602 0.714101 2.66209 0.823116 2.64712L0.885045 2.64287H4.22433C4.22433 2.03903 4.46421 1.45992 4.89119 1.03294C5.31817 0.605964 5.89727 0.366089 6.50112 0.366089ZM8.33712 10.5503C8.28021 10.6072 8.24823 10.6844 8.24823 10.7649C8.24823 10.8454 8.28021 10.9226 8.33712 10.9796L9.41115 12.0542L8.33833 13.1264C8.28133 13.1833 8.24927 13.2606 8.24922 13.3411C8.24916 13.4217 8.2811 13.499 8.33803 13.556C8.39495 13.613 8.47218 13.645 8.55274 13.6451C8.6333 13.6451 8.71058 13.6132 8.76758 13.5563L9.8404 12.4834L10.915 13.5575C10.943 13.5865 10.9765 13.6096 11.0136 13.6255C11.0506 13.6414 11.0905 13.6498 11.1308 13.6501C11.1711 13.6505 11.211 13.6428 11.2484 13.6276C11.2857 13.6123 11.3196 13.5897 11.3481 13.5612C11.3766 13.5327 11.3991 13.4988 11.4144 13.4615C11.4296 13.4242 11.4373 13.3843 11.437 13.3439C11.4366 13.3036 11.4282 13.2638 11.4123 13.2268C11.3964 13.1897 11.3733 13.1562 11.3443 13.1282L10.2703 12.0536L11.3455 10.9789C11.4008 10.9217 11.4314 10.845 11.4307 10.7654C11.43 10.6858 11.3981 10.6097 11.3418 10.5534C11.2855 10.4971 11.2094 10.4652 11.1298 10.4645C11.0502 10.4638 10.9735 10.4944 10.9163 10.5497L9.84101 11.6243L8.76637 10.5497C8.70944 10.4928 8.63224 10.4608 8.55174 10.4608C8.47124 10.4608 8.39404 10.4928 8.33712 10.5497V10.5503ZM6.50112 1.2768C6.15497 1.27676 5.82171 1.40813 5.56869 1.64435C5.31568 1.88057 5.16177 2.20404 5.13808 2.54937L5.13504 2.64287H7.86719L7.86415 2.54937C7.84046 2.20404 7.68655 1.88057 7.43354 1.64435C7.18052 1.40813 6.84726 1.27676 6.50112 1.2768Z" fill="#C4C4C4"/>
</svg>
