<svg width="16" height="16" viewBox="0 0 16 16" fill="none" xmlns="http://www.w3.org/2000/svg">
<path d="M14.5709 7.04094C14.717 6.33322 14.5979 5.64913 14.29 5.0725C14.3824 4.32663 14.1643 3.55484 13.7481 2.97906C13.7183 1.23197 12.6287 0 10.2188 0C10 0 9.75 0.0003125 9.52437 0.0003125C6.28734 0.0003125 5.28116 1.25 4 1.25H3.66109C3.48484 1.09453 3.25353 1 3 1H1C0.447719 1 0 1.44772 0 2V9.5C0 10.0523 0.447719 10.5 1 10.5H3C3.37006 10.5 3.69297 10.2988 3.86588 10H4.08625C4.68456 10.5298 5.52416 11.8954 6.235 12.6062C6.66209 13.0333 6.55228 16 8.4775 16C10.2769 16 11.4547 15.002 11.4547 12.7272C11.4547 12.1519 11.3319 11.6731 11.1781 11.2728H12.3181C13.8369 11.2728 15 9.97391 15 8.59844C15 8 14.845 7.505 14.5709 7.04094ZM2 9.25C1.58578 9.25 1.25 8.91422 1.25 8.5C1.25 8.08578 1.58578 7.75 2 7.75C2.41422 7.75 2.75 8.08578 2.75 8.5C2.75 8.91422 2.41422 9.25 2 9.25ZM12.3181 9.77281H9.06844C9.06844 10.9547 9.95469 11.5031 9.95469 12.7272C9.95469 13.4694 9.95469 14.5 8.4775 14.5C7.88656 13.9091 8.18188 12.4319 7.29563 11.5456C6.46563 10.7153 5.2275 8.5 4.34125 8.5H4V2.68219C5.67534 2.68219 7.12503 1.50031 9.36375 1.50031H10.5456C11.6554 1.50031 12.4462 2.03531 12.2056 3.55969C12.6806 3.81469 13.0337 4.69844 12.6412 5.35875C13.3157 5.99575 13.2256 6.95453 12.8041 7.40938C13.0994 7.40938 13.5028 8.00031 13.5 8.59094C13.4972 9.18188 12.9778 9.77281 12.3181 9.77281Z" fill="#C4C4C4"/>
</svg>
