<svg width="14" height="14" viewBox="0 0 14 14" fill="none" xmlns="http://www.w3.org/2000/svg">
<path d="M12.8813 6.64729C12.4007 5.63475 11.8287 4.80897 11.1655 4.16995L10.4698 4.86557C11.0371 5.40766 11.5312 6.11682 11.9584 7.00003C10.8209 9.35432 9.20629 10.4727 6.99965 10.4727C6.33729 10.4727 5.72721 10.3707 5.1694 10.1667L4.41567 10.9204C5.19041 11.2782 6.05173 11.4571 6.99965 11.4571C9.62739 11.4571 11.5879 10.0885 12.8813 7.35139C12.9333 7.24132 12.9603 7.12109 12.9603 6.99934C12.9603 6.8776 12.9333 6.75737 12.8813 6.64729ZM12.0122 2.26354L11.4293 1.68003C11.4192 1.66986 11.4071 1.66179 11.3938 1.65629C11.3806 1.65078 11.3663 1.64795 11.352 1.64795C11.3376 1.64795 11.3233 1.65078 11.3101 1.65629C11.2968 1.66179 11.2847 1.66986 11.2746 1.68003L9.77928 3.17464C8.95487 2.75354 8.02832 2.543 6.99965 2.543C4.37192 2.543 2.41137 3.91155 1.11801 6.64866C1.06602 6.75874 1.03906 6.87897 1.03906 7.00071C1.03906 7.12245 1.06602 7.24268 1.11801 7.35276C1.63472 8.44104 2.25679 9.31335 2.98422 9.9697L1.53746 11.416C1.51697 11.4366 1.50545 11.4644 1.50545 11.4934C1.50545 11.5224 1.51697 11.5502 1.53746 11.5707L2.12112 12.1543C2.14163 12.1748 2.16944 12.1863 2.19843 12.1863C2.22743 12.1863 2.25524 12.1748 2.27575 12.1543L12.0122 2.41831C12.0223 2.40815 12.0304 2.39609 12.0359 2.38281C12.0414 2.36953 12.0442 2.3553 12.0442 2.34093C12.0442 2.32655 12.0414 2.31232 12.0359 2.29904C12.0304 2.28576 12.0223 2.2737 12.0122 2.26354ZM2.04086 7.00003C3.17973 4.64573 4.79438 3.52737 6.99965 3.52737C7.74532 3.52737 8.4233 3.65534 9.0384 3.91552L8.07727 4.87665C7.62209 4.63379 7.1009 4.54365 6.5906 4.61954C6.08029 4.69543 5.60789 4.93333 5.24308 5.29814C4.87827 5.66295 4.64037 6.13535 4.56448 6.64566C4.48859 7.15597 4.57872 7.67715 4.82158 8.13233L3.68108 9.27284C3.04985 8.71571 2.50571 7.96089 2.04086 7.00003ZM5.41371 7.00003C5.41395 6.75894 5.47106 6.52132 5.58039 6.30645C5.68972 6.09158 5.84819 5.90553 6.04294 5.76342C6.23768 5.6213 6.4632 5.52713 6.70118 5.48855C6.93915 5.44997 7.18287 5.46807 7.41254 5.54137L5.48631 7.46761C5.43803 7.31645 5.41354 7.15871 5.41371 7.00003Z" fill="#C4C4C4"/>
<path d="M6.94626 8.53122C6.89896 8.53122 6.85234 8.52903 6.80613 8.52479L6.08398 9.24693C6.51832 9.41327 6.99155 9.45024 7.44645 9.35336C7.90135 9.25648 8.31845 9.02991 8.64732 8.70103C8.9762 8.37216 9.20277 7.95506 9.29965 7.50016C9.39653 7.04526 9.35956 6.57203 9.19322 6.1377L8.47108 6.85984C8.47532 6.90605 8.4775 6.95267 8.4775 6.99998C8.47761 7.20109 8.43808 7.40026 8.36117 7.58608C8.28425 7.77191 8.17147 7.94076 8.02926 8.08297C7.88705 8.22518 7.7182 8.33796 7.53237 8.41488C7.34654 8.49179 7.14738 8.53132 6.94626 8.53122Z" fill="#C4C4C4"/>
</svg>
