<svg width="13" height="11" viewBox="0 0 13 11" fill="none" xmlns="http://www.w3.org/2000/svg">
<path d="M12.5938 1.78028C12.1366 1.97892 11.6529 2.10979 11.1579 2.16875C11.6781 1.86416 12.0693 1.38027 12.2581 0.807817C11.7663 1.09539 11.2291 1.29716 10.6696 1.4045C10.434 1.15758 10.1507 0.961152 9.83682 0.82715C9.52294 0.693149 9.18509 0.624374 8.84381 0.625004C7.46205 0.625004 6.34385 1.72696 6.34385 3.08536C6.34287 3.2743 6.36452 3.46269 6.40834 3.64649C5.41752 3.60004 4.4473 3.34728 3.55976 2.90439C2.67222 2.46149 1.8869 1.83821 1.25404 1.07442C1.03202 1.44871 0.914604 1.87576 0.914062 2.31094C0.914062 3.16407 1.35916 3.91817 2.03125 4.35997C1.63306 4.35052 1.24302 4.24512 0.894258 4.05274V4.08321C0.894258 5.27657 1.75754 6.26934 2.90012 6.49532C2.68526 6.55259 2.46385 6.58161 2.24148 6.58165C2.0837 6.58192 1.92628 6.56661 1.7715 6.53594C2.08914 7.51348 3.01361 8.22442 4.10871 8.24473C3.21887 8.93051 2.12637 9.30117 1.00293 9.29844C0.803516 9.29815 0.604288 9.28628 0.40625 9.2629C1.54913 9.99268 2.87763 10.3787 4.23363 10.375C8.83848 10.375 11.3542 6.62481 11.3542 3.37227C11.3542 3.26563 11.3514 3.15899 11.3463 3.05489C11.8346 2.70756 12.257 2.27593 12.5938 1.78028Z" fill="white"/>
</svg>
