<svg width="11" height="11" viewBox="0 0 11 11" fill="none" xmlns="http://www.w3.org/2000/svg">
<path d="M6.1111 11H3.66666V3.66667H6.1111V4.88889C6.36844 4.5615 6.69504 4.29511 7.06748 4.10884C7.43991 3.92257 7.84896 3.82103 8.26527 3.8115C8.99334 3.81554 9.6901 4.10815 10.2027 4.62515C10.7154 5.14216 11.0021 5.84136 11 6.56944V11H8.55555V6.875C8.50826 6.54474 8.34329 6.24267 8.09098 6.02438C7.83867 5.80609 7.51601 5.68628 7.18238 5.687C7.03306 5.69172 6.88623 5.72656 6.75071 5.78942C6.61518 5.85228 6.49375 5.94188 6.39371 6.05282C6.29366 6.16377 6.21706 6.29379 6.16849 6.43507C6.11993 6.57635 6.10041 6.72599 6.1111 6.875V11ZM2.44444 11H0V3.66667H2.44444V11ZM1.22222 2.44444C0.898068 2.44444 0.587191 2.31568 0.35798 2.08646C0.128769 1.85725 0 1.54638 0 1.22222C0 0.898069 0.128769 0.587192 0.35798 0.357981C0.587191 0.128769 0.898068 0 1.22222 0C1.54637 0 1.85725 0.128769 2.08646 0.357981C2.31567 0.587192 2.44444 0.898069 2.44444 1.22222C2.44444 1.54638 2.31567 1.85725 2.08646 2.08646C1.85725 2.31568 1.54637 2.44444 1.22222 2.44444Z" fill="white"/>
</svg>
