<svg width="19" height="19" viewBox="0 0 19 19" fill="none" xmlns="http://www.w3.org/2000/svg">
<path fill-rule="evenodd" clip-rule="evenodd" d="M14.7964 4.07975C14.0886 3.37157 13.2477 2.81039 12.3221 2.42851C11.3965 2.04663 10.4045 1.8516 9.40322 1.85465C5.20117 1.85465 1.78047 5.25826 1.77876 9.44254C1.7769 10.7749 2.12811 12.084 2.79663 13.2365L1.71484 17.1672L5.75659 16.112C6.87537 16.7181 8.12775 17.0353 9.40015 17.0349H9.40322C13.6049 17.0349 17.0253 13.6309 17.0273 9.44698C17.0299 8.44913 16.834 7.46073 16.451 6.5393C16.068 5.61786 15.5056 4.7818 14.7964 4.07975ZM9.40322 15.7542H9.40049C8.2662 15.7545 7.15253 15.4509 6.17529 14.8751L5.9439 14.7383L3.54551 15.3645L4.18569 13.0372L4.03496 12.798C3.40072 11.7938 3.06468 10.6302 3.06597 9.44254C3.06597 5.96544 5.91006 3.13639 9.40562 3.13639C11.0825 3.13339 12.6918 3.79658 13.8798 4.98008C15.0677 6.16358 15.7369 7.77047 15.7401 9.44733C15.7388 12.9248 12.896 15.7542 9.40322 15.7542ZM12.879 11.0309C12.6886 10.9359 11.751 10.4772 11.5774 10.4139C11.4038 10.3507 11.2756 10.3189 11.1488 10.5089C11.022 10.699 10.6566 11.1242 10.5455 11.2524C10.4344 11.3805 10.3233 11.3945 10.133 11.2995C9.94258 11.2045 9.32837 11.0046 8.60069 10.3586C8.03433 9.85577 7.6522 9.23507 7.54111 9.04537C7.43003 8.85568 7.52915 8.75279 7.62451 8.65846C7.7103 8.57335 7.81489 8.43697 7.91025 8.32623C8.00562 8.21549 8.0374 8.13619 8.10064 8.00973C8.16387 7.88326 8.13242 7.77252 8.08491 7.67784C8.0374 7.58317 7.6563 6.64972 7.49771 6.26998C7.34287 5.90016 7.18599 5.9504 7.06909 5.94459C6.95801 5.93912 6.82984 5.93776 6.70371 5.93776C6.6073 5.94027 6.51243 5.96262 6.42504 6.00344C6.33765 6.04425 6.25961 6.10264 6.1958 6.17496C6.02114 6.365 5.52896 6.82438 5.52896 7.7568C5.52896 8.68922 6.21255 9.59156 6.30689 9.71803C6.40122 9.84449 7.65015 11.7596 9.56113 12.5809C9.91599 12.7329 10.2786 12.8661 10.6474 12.9801C11.1037 13.1244 11.5189 13.1042 11.8471 13.0553C12.2131 13.001 12.975 12.5966 13.1333 12.1537C13.2915 11.7107 13.2918 11.3313 13.2443 11.2524C13.1968 11.1734 13.0697 11.1255 12.879 11.0309Z" fill="white"/>
</svg>
