<svg width="99" height="44" viewBox="0 0 99 44" fill="none" xmlns="http://www.w3.org/2000/svg">
<mask id="mask0_235_2464" style="mask-type:alpha" maskUnits="userSpaceOnUse" x="60" y="-1" width="39" height="45">
<path d="M80.0437 0.0208933C80.2278 0.0438151 80.4156 0.0860121 80.605 0.149568C82.0645 0.636656 82.9231 2.44123 82.379 3.87853C82.1276 4.54222 81.6425 5.08557 81.2309 5.66382C80.1944 7.11988 79.6065 9.11095 80.4438 10.6899C80.7281 11.2255 81.1761 11.7428 81.113 12.3455C81.0666 12.793 80.7453 13.1546 80.5152 13.5411C80.0541 14.3158 79.9425 15.2675 80.099 16.1552C80.2555 17.0429 80.6639 17.8712 81.1788 18.6115C81.6227 19.2502 82.1568 19.8488 82.4067 20.5854C82.7911 21.72 82.3691 23.0786 81.4093 23.7965C80.4495 24.5144 79.0249 24.5357 78.0432 23.8476C77.0615 23.1594 76.5982 21.8143 76.9483 20.6687C77.196 19.8566 77.7855 19.2028 78.2628 18.5005C79.2471 17.0507 79.7609 15.0722 78.8747 13.5604C78.6483 13.1744 78.3322 12.8154 78.2758 12.371C78.1934 11.723 78.6822 11.1624 78.9743 10.5779C79.6874 9.1521 79.2268 7.39233 78.3676 6.04932C77.9717 5.43044 77.4949 4.86052 77.17 4.20204C76.1658 2.16929 77.8643 -0.251042 80.0437 0.0208933Z" fill="#758B58"/>
<path d="M60.3555 21.8653C60.2903 20.0431 62.778 19.0762 64.0581 20.3827C64.537 20.8714 64.7451 21.609 64.5917 22.2753C64.4551 22.8682 64.0664 23.3652 63.755 23.8882C62.6283 25.7792 62.5036 28.2298 63.4332 30.225C63.6841 30.7637 64.0143 31.3034 63.995 31.8973C63.9699 32.674 63.2417 33.3591 62.464 33.3372C61.6862 33.3153 60.9971 32.5912 61.0154 31.8144C61.0274 31.3044 61.296 30.8423 61.5135 30.3803C62.4415 28.4074 62.4671 25.9793 61.3727 24.0934C60.9982 23.448 60.4922 22.8426 60.3785 22.1055C60.3659 22.0237 60.3581 21.944 60.3555 21.8653Z" fill="#D6B54F"/>
<path d="M79.3824 43.23C79.3579 43.2263 79.3328 43.2227 79.3083 43.218C78.4215 43.057 77.6818 42.2834 77.5608 41.391C77.289 39.3822 79.8472 38.1533 81.2493 39.6193C81.8722 40.2704 82.0151 41.3306 81.5879 42.1229C81.1726 42.8934 80.2483 43.3529 79.3824 43.23Z" fill="#58A8AB"/>
<path d="M62.1211 10.7281C62.4633 10.6755 62.8123 10.6468 63.1205 10.5791C65.1414 10.1363 66.9233 8.7172 67.8064 6.84908C68.0385 6.35782 68.2175 5.82906 68.5706 5.41594C69.1283 4.7632 70.1079 4.50793 70.9138 4.80591C71.7197 5.1039 72.2972 5.93377 72.2956 6.79229C72.2936 7.65082 71.7124 8.47809 70.9055 8.77242C70.3583 8.97195 69.7579 8.93756 69.1768 8.97455C66.8852 9.11886 64.7063 10.4822 63.577 12.479C63.3814 12.8244 63.2097 13.1948 62.9187 13.4651C62.3 14.0397 61.1868 13.9408 60.6793 13.2661C60.2526 12.6993 60.347 11.8966 60.7669 11.3579C61.0893 10.9432 61.5974 10.8083 62.1211 10.7281Z" fill="#D6B54F"/>
<path d="M71.1271 37.6779C70.6529 37.6841 70.1761 37.5403 69.7995 37.2512C69.1188 36.7287 68.8126 35.7665 69.0666 34.9476C69.2872 34.237 69.8605 33.6957 70.2121 33.0398C70.6769 32.1725 70.7327 31.1509 70.7411 30.1673C70.7484 29.2812 70.7202 28.3701 70.379 27.5522C70.1328 26.9619 69.728 26.4295 69.6122 25.8002C69.3947 24.614 70.811 23.7164 71.8438 24.266C72.2569 24.4859 72.5459 24.9224 72.5866 25.3876C72.6372 25.9638 72.3367 26.504 72.0968 27.0307C71.2027 28.9973 71.1156 31.3957 72.1917 33.2691C72.5438 33.8822 73.019 34.4495 73.1635 35.1419C73.3393 35.9811 72.9434 36.91 72.2162 37.3663C71.8923 37.5695 71.5105 37.6726 71.1271 37.6779Z" fill="#58A8AB"/>
<path d="M97.6692 13.4087C97.8387 13.0014 98.0651 12.6278 98.3765 12.3074C98.6937 11.9813 98.9237 11.6062 98.967 11.1395C98.9701 11.1082 98.9889 11.079 98.9999 11.0488C98.9999 10.8655 98.9999 10.6816 98.9999 10.4982C98.9884 10.4753 98.9691 10.4534 98.967 10.4294C98.9227 9.97776 98.7109 9.6058 98.3968 9.29375C97.8815 8.78062 97.2597 8.56494 96.533 8.68268C96.2686 8.7254 96.0062 8.79208 95.7401 8.81135C95.2801 8.84469 94.8257 8.77958 94.3792 8.66653C93.7725 8.51285 93.1998 8.27269 92.6479 7.98096C91.8372 7.55222 91.0939 7.02866 90.4382 6.38685C90.1184 6.07376 89.8561 5.72681 89.7027 5.28973C89.4466 4.56093 88.7064 4.20512 88.022 4.32702C86.8671 4.53227 86.3538 5.8534 87.0637 6.77392C87.3553 7.15213 87.7439 7.36468 88.2327 7.35426C88.4085 7.35061 88.5838 7.32456 88.7596 7.30998C89.1513 7.27664 89.5306 7.3428 89.903 7.4548C91.2593 7.86375 92.4825 8.51389 93.5373 9.46567C94.1319 10.0022 94.5988 10.6217 94.8184 11.4067C94.9113 11.7401 95.0876 12.0287 95.3327 12.2767C95.5972 12.5445 95.808 12.8518 95.9686 13.1925C96.3619 14.0245 96.5049 14.9122 96.5367 15.8207C96.5576 16.4167 96.5346 17.0111 96.4454 17.6029C96.3724 18.0895 96.2764 18.5687 96.1053 19.0308C96.0208 19.259 95.9019 19.4653 95.7355 19.6502C95.2081 20.2347 95.1825 21.1105 95.7255 21.7085C95.9676 21.9752 96.1001 22.2888 96.2008 22.6223C96.3604 23.15 96.4475 23.6907 96.497 24.2393C96.5748 25.0978 96.5576 25.9516 96.399 26.8008C96.2336 27.6854 95.9222 28.4923 95.278 29.1565C94.6124 29.8426 94.5691 30.9142 95.0088 31.654C95.4835 32.4526 96.351 32.8688 97.2727 32.6834C98.1219 32.512 98.6754 31.9848 98.9315 31.1554C98.9639 31.0512 98.9769 30.9413 98.9993 30.834C98.9993 30.6506 98.9993 30.4667 98.9993 30.2833C98.9764 30.1906 98.9566 30.0974 98.9305 30.0052C98.8356 29.6717 98.6749 29.3732 98.4302 29.1263C97.8763 28.5673 97.5779 27.8776 97.3995 27.1279C97.2305 26.4174 97.1736 25.6938 97.1919 24.9655C97.2122 24.1653 97.3051 23.374 97.5388 22.6045C97.6446 22.2565 97.8017 21.9419 98.0463 21.6621C98.5215 21.1188 98.5497 20.267 98.0333 19.7023C97.7041 19.3429 97.569 18.9027 97.4532 18.4526C97.2414 17.6295 97.171 16.7887 97.1934 15.9421C97.2164 15.0726 97.3317 14.2178 97.6692 13.4087Z" fill="#734F60"/>
<path d="M90.3618 16.6573C90.5261 15.6946 89.9168 14.6579 88.9956 14.3318C88.7609 14.2485 88.5225 14.2136 88.2893 14.2188C86.9461 14.25 85.7563 15.6279 86.2779 16.9928C86.4923 17.5528 86.8783 18.0285 87.1777 18.5479C88.1688 20.268 88.1339 22.5295 87.0896 24.2184C86.8 24.6867 86.4365 25.1207 86.268 25.6442C86.0087 26.4522 86.2982 27.4066 86.9638 27.9349C87.6289 28.4631 88.6253 28.5298 89.355 28.0948C90.0848 27.6598 90.4995 26.7528 90.3503 25.9172C90.2131 25.1499 89.6717 24.5294 89.2919 23.8485C88.4281 22.2997 88.4281 20.305 89.2919 18.7562C89.6764 18.066 90.2288 17.4362 90.3618 16.6573Z" fill="#734F60"/>
<path d="M89.4369 33.742C87.7364 32.6563 85.5591 34.4463 86.2946 36.3201C86.6065 37.1146 87.437 37.672 88.2893 37.6756C88.3305 37.6756 88.3712 37.6746 88.4124 37.672C89.3065 37.6189 90.1286 36.9442 90.3545 36.0784C90.5804 35.2136 90.1917 34.2238 89.4369 33.742Z" fill="#758B58"/>
<path d="M71.0915 14.8361C71.5453 14.8038 72.0122 14.9799 72.356 15.4617C72.8244 16.1176 72.6528 17.1402 71.9955 17.6075C71.3388 18.0753 70.3148 17.9039 69.8469 17.2476C69.0446 16.1244 70.0331 14.9121 71.0915 14.8361Z" fill="#D6B54F"/>
<path d="M78.1578 31.1978C78.0968 30.4455 78.7926 29.6563 79.6784 29.6599C80.5698 29.6636 81.2292 30.3507 81.2255 31.2108C81.2219 32.0745 80.5104 32.7179 79.7185 32.7341C78.85 32.7518 78.114 32.0245 78.1578 31.1978Z" fill="#58A8AB"/>
</mask>
<g mask="url(#mask0_235_2464)">
<rect x="60.3541" y="-6.10352e-05" width="38.6458" height="43.25" fill="url(#paint0_linear_235_2464)"/>
</g>
<path d="M16.2506 25.8129C16.5725 25.8129 16.7334 26.2394 16.7334 27.0924C16.7334 27.9615 16.5725 28.3961 16.2506 28.3961H15.7436C13.764 28.3961 12.404 27.8247 11.6637 26.682C11.0843 26.9717 10.4566 27.197 9.78063 27.358C9.10466 27.5189 8.44479 27.5994 7.80102 27.5994C6.6744 27.5994 5.62827 27.3419 4.6626 26.8268C3.69693 26.2957 2.9244 25.5795 2.345 24.6782C1.7817 23.7609 1.50004 22.763 1.50004 21.6847C1.50004 20.5903 1.7817 19.5924 2.345 18.6911C2.9244 17.7898 3.69693 17.0736 4.6626 16.5425C5.62827 16.0114 6.6744 15.7458 7.80102 15.7458C8.81496 15.7458 9.85306 15.9309 10.9153 16.3011V15.8424H13.6916V23.4953C13.6916 24.3483 13.8525 24.9518 14.1744 25.3059C14.4963 25.6439 15.0918 25.8129 15.9609 25.8129H16.2506ZM7.80102 24.9921C8.86325 24.9921 9.90939 24.7024 10.9394 24.123C10.9233 23.9942 10.9153 23.793 10.9153 23.5194V19.1498C9.90134 18.6026 8.86325 18.329 7.80102 18.329C7.15724 18.329 6.56174 18.4819 6.01453 18.7877C5.48342 19.0774 5.05691 19.4797 4.73503 19.9948C4.42923 20.5098 4.27633 21.0731 4.27633 21.6847C4.27633 22.2802 4.42923 22.8354 4.73503 23.3505C5.05691 23.8494 5.48342 24.2517 6.01453 24.5575C6.56174 24.8472 7.15724 24.9921 7.80102 24.9921ZM9.73235 13.9835C9.31389 13.9835 8.95981 13.8386 8.67011 13.5489C8.39651 13.2592 8.25971 12.8971 8.25971 12.4626C8.25971 12.0119 8.39651 11.6498 8.67011 11.3762C8.95981 11.0865 9.31389 10.9416 9.73235 10.9416C10.1508 10.9416 10.4968 11.0865 10.7704 11.3762C11.0601 11.6498 11.205 12.0119 11.205 12.4626C11.205 12.8971 11.0601 13.2592 10.7704 13.5489C10.4968 13.8386 10.1508 13.9835 9.73235 13.9835ZM5.91797 13.9835C5.49951 13.9835 5.14543 13.8386 4.85573 13.5489C4.58213 13.2592 4.44533 12.8971 4.44533 12.4626C4.44533 12.0119 4.58213 11.6498 4.85573 11.3762C5.14543 11.0865 5.49951 10.9416 5.91797 10.9416C6.33642 10.9416 6.68245 11.0865 6.95606 11.3762C7.24576 11.6498 7.39061 12.0119 7.39061 12.4626C7.39061 12.8971 7.24576 13.2592 6.95606 13.5489C6.68245 13.8386 6.33642 13.9835 5.91797 13.9835ZM29.2235 25.8129C29.5454 25.8129 29.7064 26.2394 29.7064 27.0924C29.7064 27.9615 29.5454 28.3961 29.2235 28.3961H16.2595C15.9376 28.3961 15.7766 27.9615 15.7766 27.0924C15.7766 26.2394 15.9376 25.8129 16.2595 25.8129H23.4537V25.6198C23.4537 23.7689 23.0513 22.3365 22.2466 21.3226C21.458 20.2925 20.3313 19.7775 18.8668 19.7775L17.1286 17.9427L23.4054 11.5935L25.1436 13.4041L21.1844 17.4357C22.7294 17.9186 23.9526 18.9003 24.8539 20.381C25.7713 21.8456 26.23 23.6562 26.23 25.8129H29.2235ZM36.5652 25.8129C36.8871 25.8129 37.0481 26.2394 37.0481 27.0924C37.0481 27.9615 36.8871 28.3961 36.5652 28.3961H29.2262C28.9043 28.3961 28.7433 27.9615 28.7433 27.0924C28.7433 26.2394 28.9043 25.8129 29.2262 25.8129H31.0851V10.5071H33.8614V25.8129H36.5652ZM44.0904 15.5527C45.4585 15.5527 46.7299 16.0597 47.9048 17.0736C49.0797 18.0715 49.9971 19.4395 50.657 21.1777C51.3168 22.8998 51.6065 24.7909 51.5261 26.851C50.4156 27.3499 49.2165 27.7362 47.929 28.0098C46.6575 28.2673 45.5068 28.3961 44.4767 28.3961C42.9316 28.3961 41.4268 28.0661 39.9622 27.4062C39.1575 28.0661 38.1355 28.3961 36.8962 28.3961H36.5583C36.2364 28.3961 36.0754 27.9615 36.0754 27.0924C36.0754 26.2394 36.2364 25.8129 36.5583 25.8129H36.8962C37.4113 25.8129 37.8136 25.6922 38.1033 25.4508C38.4091 25.1933 38.6022 24.7909 38.6827 24.2437L38.7551 23.616C38.9 22.3445 39.1012 21.1536 39.3587 20.043C39.6323 18.9325 40.1473 17.9105 40.9037 16.9771C41.6763 16.0275 42.7385 15.5527 44.0904 15.5527ZM41.3624 25.1128C42.3603 25.5795 43.4064 25.8129 44.5009 25.8129C45.7884 25.8129 47.1967 25.5795 48.7256 25.1128C48.613 23.8735 48.3233 22.7228 47.8565 21.6605C47.3898 20.5822 46.8265 19.7292 46.1666 19.1015C45.5229 18.4577 44.871 18.1359 44.2112 18.1359C43.5835 18.1359 43.0845 18.4256 42.7144 19.005C42.3603 19.5683 42.1108 20.2201 41.966 20.9604C41.8211 21.7008 41.6924 22.5779 41.5797 23.5919L41.4349 24.7507L41.3624 25.1128Z" fill="white"/>
<defs>
<linearGradient id="paint0_linear_235_2464" x1="60.3541" y1="21.643" x2="98.9999" y2="21.643" gradientUnits="userSpaceOnUse">
<stop stop-color="#F372BD"/>
<stop offset="1" stop-color="#0874C4"/>
</linearGradient>
</defs>
</svg>
