<svg width="18" height="18" viewBox="0 0 18 18" fill="none" xmlns="http://www.w3.org/2000/svg">
<path d="M8.54996 15.7664C8.33781 15.7655 8.13046 15.7001 7.95489 15.5787C5.35384 13.7901 4.22623 12.5658 3.604 11.8006C2.278 10.1694 1.64051 8.49701 1.65295 6.68807C1.66757 4.61513 3.30835 2.93399 5.31055 2.94012C6.76646 2.94457 7.7773 3.77639 8.36661 4.46841C8.38528 4.49011 8.40832 4.50754 8.43416 4.51951C8.46001 4.53148 8.48807 4.53772 8.51644 4.53781C8.54481 4.5379 8.57283 4.53183 8.5986 4.52001C8.62438 4.5082 8.64731 4.49091 8.66585 4.46932C9.25104 3.78023 10.2569 2.95525 11.7128 2.9597C13.715 2.96583 15.3659 4.65703 15.3929 6.73043C15.4161 8.53982 14.788 10.2084 13.4723 11.8311C12.8547 12.5925 11.7343 13.81 9.14392 15.5827C8.96903 15.7029 8.76207 15.7669 8.54996 15.7664Z" fill="white"/>
</svg>
