<svg width="182" height="293" viewBox="0 0 182 293" fill="none" xmlns="http://www.w3.org/2000/svg">
<path d="M70.3148 220.954C69.6887 217.466 66.7772 215.561 65.7902 213.338C65.0261 206.79 59.4012 194.085 59.4012 194.085C59.4012 194.085 36.6118 196.701 30.994 197.302C25.3763 197.902 19.9778 195.472 15.9626 190.601C11.9474 185.729 15.5735 177.02 16.7833 172.774C17.9932 168.528 12.8919 166.094 12.8919 166.094C10.3731 161.638 14.8023 157.16 14.8023 157.16C13.3773 156.673 12.1609 155.707 11.3566 154.422C10.5523 153.138 10.2089 151.614 10.3838 150.105C10.3838 150.105 12.7894 144.436 12.8919 142.199C12.9945 139.962 7.61024 140.984 2.81322 137.743C-1.98381 134.501 0.807373 129.83 0.807373 129.83C0.807373 129.83 17.4343 105.356 19.051 101.299C20.6677 97.2431 16.044 93.6013 14.8483 88.3333C13.6525 83.0654 22.5709 47.9768 22.5709 47.9768C20.6076 47.1695 18.7823 46.0551 17.1619 44.6746C11.438 40.0285 6.90273 29.9358 7.25648 18.9639C9.16032 20.735 11.1598 22.3982 13.2457 23.9459C14.3874 19.051 16.5994 14.4765 19.7196 10.5581C19.7196 10.5581 20.9224 17.4378 23.94 20.8867C23.94 20.8867 20.8127 11.3729 26.8267 2.4632C26.8267 2.4632 30.619 10.9727 44.0656 7.53456C57.5121 4.09647 105.801 -7.0005 128.849 6.58391C128.849 6.58391 131.452 7.59889 130.869 2.53467C130.869 2.53467 136.5 5.76906 138.871 10.2436C138.871 10.2436 150.092 14.8897 159.7 23.4277C162.962 26.3154 165.909 29.9358 168.382 33.4668C168.232 32.7691 168.043 32.0807 167.816 31.4047C166.814 28.4455 164.151 25.6328 161.409 22.3055C167.876 26.2868 170.03 30.6541 170.373 34.3603C173.716 35.7898 177.148 39.0671 179.136 46.2078C176.706 42.6339 174.746 39.2887 172.195 37.516C171.615 37.1137 171.013 36.745 170.391 36.4117V36.4546C172.558 39.8067 174.516 43.292 176.253 46.8904C175.039 46.0203 173.734 45.288 172.361 44.7067C172.361 44.7067 177.93 54.031 178.729 65.371C179.529 76.711 180.71 94.5305 168.046 116.603C155.381 138.675 144.499 157.631 150.909 175.054C157.319 192.477 161.749 196.208 177.767 216.436C179.407 218.558 180.798 220.864 181.913 223.309C102.458 237.097 70.1026 271.532 53.0547 293C58.3046 260.442 72.349 232.279 70.3148 220.954Z" fill="#0874C4"/>
</svg>
