<svg width="14" height="16" viewBox="0 0 14 16" fill="none" xmlns="http://www.w3.org/2000/svg">
<path d="M13.4717 10.9992C13.4134 10.9289 13.3561 10.8586 13.2998 10.7907C12.5264 9.8552 12.0584 9.29059 12.0584 6.64227C12.0584 5.27117 11.7304 4.14617 11.0839 3.30242C10.6072 2.6791 9.96278 2.20625 9.11341 1.8568C9.10248 1.85072 9.09272 1.84274 9.08458 1.83324C8.77907 0.810195 7.94306 0.125 7.00017 0.125C6.05728 0.125 5.22161 0.810195 4.9161 1.83219C4.90795 1.84134 4.89833 1.84906 4.88763 1.85504C2.90552 2.67102 1.94224 4.23652 1.94224 6.64121C1.94224 9.29059 1.47501 9.8552 0.700869 10.7896C0.644619 10.8575 0.587314 10.9264 0.528955 10.9981C0.378205 11.1799 0.282693 11.4011 0.253721 11.6355C0.22475 11.8699 0.263532 12.1077 0.365478 12.3207C0.582392 12.7777 1.0447 13.0614 1.57239 13.0614H12.4318C12.957 13.0614 13.4162 12.7781 13.6338 12.3232C13.7362 12.1101 13.7753 11.8721 13.7466 11.6374C13.7179 11.4028 13.6225 11.1813 13.4717 10.9992ZM7.00017 15.875C7.50819 15.8746 8.00662 15.7367 8.44261 15.4759C8.8786 15.2152 9.23589 14.8413 9.47657 14.3939C9.48791 14.3724 9.49351 14.3484 9.49283 14.3242C9.49215 14.2999 9.48521 14.2763 9.47268 14.2555C9.46016 14.2347 9.44247 14.2176 9.42135 14.2056C9.40022 14.1937 9.37637 14.1875 9.35212 14.1875H4.64892C4.62463 14.1874 4.60074 14.1936 4.57957 14.2055C4.55839 14.2174 4.54066 14.2346 4.52809 14.2554C4.51552 14.2761 4.50855 14.2998 4.50786 14.3241C4.50716 14.3484 4.51276 14.3724 4.52411 14.3939C4.76477 14.8412 5.122 15.2151 5.55792 15.4758C5.99384 15.7366 6.49221 15.8745 7.00017 15.875Z" fill="white"/>
</svg>
