<svg width="16" height="16" viewBox="0 0 16 16" fill="none" xmlns="http://www.w3.org/2000/svg">
<path d="M8 0.6875C3.96793 0.6875 0.6875 3.96793 0.6875 8C0.6875 12.0321 3.96793 15.3125 8 15.3125C12.0321 15.3125 15.3125 12.0321 15.3125 8C15.3125 3.96793 12.0321 0.6875 8 0.6875ZM8.07031 4.0625C8.57095 4.0625 9.06034 4.21096 9.4766 4.48909C9.89286 4.76723 10.2173 5.16256 10.4089 5.62508C10.6005 6.08761 10.6506 6.59656 10.5529 7.08757C10.4553 7.57859 10.2142 8.02961 9.86018 8.38361C9.50618 8.73762 9.05515 8.97869 8.56414 9.07636C8.07312 9.17403 7.56417 9.1239 7.10164 8.93232C6.63912 8.74074 6.24379 8.4163 5.96565 8.00004C5.68752 7.58378 5.53906 7.09438 5.53906 6.59375C5.53906 5.92242 5.80575 5.27859 6.28045 4.80389C6.75515 4.32918 7.39898 4.0625 8.07031 4.0625ZM8 14.1875C7.14657 14.1879 6.30234 14.0112 5.52064 13.6687C4.73895 13.3262 4.03679 12.8253 3.45852 12.1977C3.7693 10.5882 6.5607 10.25 8 10.25C9.4393 10.25 12.2307 10.5882 12.5415 12.1973C11.9633 12.8251 11.2611 13.3261 10.4794 13.6686C9.69773 14.0112 8.85347 14.1879 8 14.1875Z" fill="white"/>
</svg>
