<svg width="16" height="18" viewBox="0 0 16 18" fill="none" xmlns="http://www.w3.org/2000/svg">
<path d="M8.00005 6.1875C7.44379 6.1875 6.90002 6.35245 6.43751 6.66149C5.975 6.97053 5.61451 7.40979 5.40164 7.9237C5.18877 8.43762 5.13307 9.00312 5.24159 9.54869C5.35011 10.0943 5.61798 10.5954 6.01131 10.9887C6.40465 11.3821 6.90579 11.6499 7.45136 11.7585C7.99693 11.867 8.56243 11.8113 9.07635 11.5984C9.59026 11.3855 10.0295 11.0251 10.3386 10.5625C10.6476 10.1 10.8125 9.55626 10.8125 9C10.8103 8.25476 10.5133 7.54069 9.98633 7.01372C9.45936 6.48676 8.74529 6.18973 8.00005 6.1875ZM14.0722 9C14.0708 9.2628 14.0515 9.5252 14.0146 9.78539L15.7263 11.1255C15.8009 11.1871 15.8511 11.2732 15.8681 11.3684C15.885 11.4635 15.8675 11.5617 15.8188 11.6452L14.1995 14.4408C14.1503 14.5235 14.0734 14.5863 13.9825 14.618C13.8916 14.6497 13.7924 14.6483 13.7024 14.6141L11.6897 13.8055C11.2706 14.1282 10.812 14.3961 10.3249 14.6025L10.024 16.7393C10.0072 16.835 9.95759 16.9219 9.88379 16.9851C9.80998 17.0484 9.71651 17.084 9.61935 17.0859H6.38075C6.28536 17.0841 6.19341 17.0499 6.11991 16.9891C6.04642 16.9282 5.99573 16.8443 5.9761 16.7509L5.67517 14.6141C5.1868 14.4101 4.72783 14.1418 4.3104 13.8164L2.29771 14.625C2.20774 14.6592 2.10857 14.6607 2.01765 14.629C1.92673 14.5974 1.84988 14.5347 1.8006 14.452L0.1813 11.6568C0.132559 11.5733 0.115097 11.4751 0.132035 11.38C0.148973 11.2848 0.199207 11.1987 0.273761 11.1371L1.98552 9.79699C1.94901 9.53286 1.92975 9.26663 1.92786 9C1.92933 8.7372 1.94859 8.4748 1.98552 8.21461L0.273761 6.87445C0.199207 6.81289 0.148973 6.72683 0.132035 6.63164C0.115097 6.53645 0.132559 6.43834 0.1813 6.35484L1.8006 3.55922C1.84982 3.47646 1.92666 3.41371 2.01758 3.38201C2.10851 3.35031 2.2077 3.35168 2.29771 3.3859L4.3104 4.19449C4.72951 3.87176 5.18814 3.60393 5.67517 3.3975L5.9761 1.2607C5.99295 1.16499 6.04251 1.0781 6.11631 1.01487C6.19012 0.951646 6.28359 0.916013 6.38075 0.914062H9.61935C9.71474 0.915919 9.80669 0.950059 9.88019 1.01091C9.95368 1.07176 10.0044 1.15573 10.024 1.2491L10.3249 3.3859C10.8139 3.58979 11.2735 3.85806 11.6915 4.18359L13.7024 3.375C13.7924 3.34075 13.8915 3.33932 13.9824 3.37096C14.0734 3.40259 14.1502 3.46527 14.1995 3.54797L15.8188 6.34359C15.8675 6.42709 15.885 6.5252 15.8681 6.62039C15.8511 6.71558 15.8009 6.80164 15.7263 6.8632L14.0146 8.20336C14.0511 8.46737 14.0703 8.73348 14.0722 9Z" fill="white"/>
</svg>
