<svg width="17" height="17" viewBox="0 0 17 17" fill="none" xmlns="http://www.w3.org/2000/svg">
<path d="M14.875 8.5C14.875 4.98047 12.0195 2.125 8.5 2.125C4.98047 2.125 2.125 4.98047 2.125 8.5C2.125 12.0195 4.98047 14.875 8.5 14.875C12.0195 14.875 14.875 12.0195 14.875 8.5Z" stroke="#C4C4C4" stroke-width="1.03897" stroke-miterlimit="10"/>
<path d="M11.0634 9.88422C11.6704 9.1076 11.9619 8.30939 11.9529 7.44811C11.9426 6.41682 11.1156 5.57777 10.1092 5.57777C9.43183 5.57777 8.94706 5.93105 8.64458 6.25578C8.62615 6.27568 8.60381 6.29155 8.57895 6.3024C8.5541 6.31326 8.52727 6.31886 8.50015 6.31886C8.47303 6.31886 8.4462 6.31326 8.42134 6.3024C8.39649 6.29155 8.37415 6.27568 8.35571 6.25578C8.05323 5.93105 7.56847 5.57777 6.89112 5.57777L6.83999 5.57811C6.81387 5.57854 6.78845 5.58667 6.76692 5.60148C6.74539 5.61628 6.72871 5.63711 6.71897 5.66136C6.70922 5.6856 6.70684 5.71218 6.71212 5.73777C6.71741 5.76336 6.73013 5.78682 6.74868 5.80521L10.8659 9.89617C10.8789 9.90971 10.8948 9.92026 10.9123 9.92709C10.9298 9.93391 10.9486 9.93686 10.9674 9.93573C10.9862 9.93459 11.0045 9.9294 11.0211 9.9205C11.0376 9.91161 11.0521 9.89923 11.0634 9.88422ZM5.27413 7.33787C5.25576 7.31959 5.23245 7.30708 5.20706 7.30189C5.18167 7.2967 5.15532 7.29904 5.13124 7.30864C5.10717 7.31824 5.08644 7.33468 5.07159 7.35592C5.05674 7.37716 5.04843 7.40228 5.04769 7.42818V7.44943C5.03839 8.34924 5.35681 9.18031 6.02054 9.98947C6.33198 10.3693 6.8971 10.9766 8.20198 11.8625C8.28999 11.9227 8.39415 11.955 8.50081 11.955C8.60747 11.955 8.71164 11.9227 8.79964 11.8625C8.97064 11.7466 9.12835 11.6354 9.27478 11.5304C9.2903 11.5191 9.30318 11.5045 9.31253 11.4878C9.32187 11.471 9.32747 11.4523 9.32892 11.4332C9.33037 11.414 9.32765 11.3948 9.32094 11.3768C9.31423 11.3588 9.30369 11.3424 9.29005 11.3289L5.27413 7.33787ZM11.1564 12.2187C11.0866 12.2188 11.0175 12.2051 10.9531 12.1784C10.8886 12.1517 10.8301 12.1125 10.7809 12.063L4.93712 6.21926C4.8417 6.11882 4.78929 5.98508 4.79106 5.84655C4.79283 5.70802 4.84865 5.57566 4.94662 5.4777C5.04458 5.37973 5.17693 5.32391 5.31546 5.32214C5.45399 5.32037 5.58774 5.37278 5.68818 5.4682L11.5319 11.312C11.6062 11.3862 11.6567 11.4809 11.6772 11.5839C11.6977 11.6869 11.6872 11.7937 11.647 11.8907C11.6068 11.9878 11.5387 12.0707 11.4514 12.1291C11.3641 12.1875 11.2614 12.2187 11.1564 12.2187Z" fill="#C4C4C4"/>
</svg>
