<svg width="22" height="23" viewBox="0 0 22 23" fill="none" xmlns="http://www.w3.org/2000/svg">
<ellipse cx="11" cy="11.2651" rx="11" ry="11.1546" fill="#8C68CA"/>
<path d="M11.0861 10.5303C11.0759 10.517 11.0628 10.5063 11.0479 10.4989C11.0329 10.4916 11.0166 10.4877 11 10.4877C10.9834 10.4877 10.967 10.4916 10.9521 10.4989C10.9371 10.5063 10.9241 10.517 10.9138 10.5303L9.38258 12.4948C9.36996 12.5112 9.36212 12.5308 9.35998 12.5514C9.35783 12.5721 9.36146 12.5929 9.37044 12.6116C9.37943 12.6302 9.39341 12.646 9.41079 12.6569C9.42816 12.6679 9.44824 12.6737 9.46871 12.6737H10.4791V16.0343C10.4791 16.0953 10.5283 16.1452 10.5884 16.1452H11.4088C11.4689 16.1452 11.5181 16.0953 11.5181 16.0343V12.6751H12.5312C12.6228 12.6751 12.6734 12.5683 12.6173 12.4962L11.0861 10.5303Z" fill="white"/>
<path d="M15.0934 9.25065C14.4672 7.57587 12.8717 6.38495 11.0027 6.38495C9.13379 6.38495 7.53828 7.57448 6.91211 9.24926C5.74043 9.5612 4.875 10.644 4.875 11.9306C4.875 13.4625 6.09863 14.7034 7.60801 14.7034H8.15625C8.21641 14.7034 8.26562 14.6535 8.26562 14.5925V13.7606C8.26562 13.6996 8.21641 13.6497 8.15625 13.6497H7.60801C7.14727 13.6497 6.71387 13.4639 6.39121 13.127C6.06992 12.7915 5.89902 12.3396 5.91406 11.871C5.92637 11.5049 6.04941 11.1611 6.27227 10.8714C6.50059 10.5761 6.82051 10.3612 7.17598 10.2655L7.69414 10.1282L7.88418 9.62082C8.00176 9.30472 8.16582 9.00941 8.37227 8.74184C8.57607 8.47663 8.8175 8.24349 9.08867 8.05002C9.65059 7.64935 10.3123 7.43723 11.0027 7.43723C11.6932 7.43723 12.3549 7.64935 12.9168 8.05002C13.1889 8.24412 13.4295 8.47703 13.6332 8.74184C13.8396 9.00941 14.0037 9.3061 14.1213 9.62082L14.31 10.1269L14.8268 10.2655C15.5678 10.4679 16.0859 11.1514 16.0859 11.9306C16.0859 12.3895 15.9096 12.822 15.5896 13.1464C15.4328 13.3065 15.2461 13.4334 15.0405 13.5197C14.835 13.6061 14.6145 13.6503 14.392 13.6497H13.8438C13.7836 13.6497 13.7344 13.6996 13.7344 13.7606V14.5925C13.7344 14.6535 13.7836 14.7034 13.8438 14.7034H14.392C15.9014 14.7034 17.125 13.4625 17.125 11.9306C17.125 10.6454 16.2623 9.56398 15.0934 9.25065Z" fill="white"/>
</svg>
