<svg width="200" height="293" viewBox="0 0 200 293" fill="none" xmlns="http://www.w3.org/2000/svg">
<path d="M194.343 137.729C187.238 141.141 191.092 145.963 191.573 147.343C192.875 151.051 192.017 155.502 186.872 155.954C186.872 155.954 189.062 158.357 189.616 160.06C190.171 161.762 190.678 165.104 187.678 167.106C184.679 169.109 185.09 174.813 186.414 179.46C187.738 184.107 186.325 197.633 164.135 194.01C141.945 190.386 127.691 189.693 120.935 237.246C117.628 260.534 124.711 278.321 133.28 293C123.797 282.044 111.903 271.745 98.0419 263.011C81.3994 252.534 64.1466 245.691 47.9553 242.483C52.3379 236.998 56.5614 232.058 60.6443 227.277C60.6443 227.277 83.6332 198.408 68.6401 181.248C13.461 163.728 26.4162 123.199 24.3932 117.661C22.9583 113.712 22.4442 104.462 22.2408 98.7876C19.8924 101.028 16.194 103.101 11.8522 99.763C16.0868 100.701 18.5795 99.6591 20.0403 98.2127C9.6073 97.1594 1.24907 88.277 0.80896 77.1359C0.674683 74.058 1.17856 70.9856 2.28874 68.1129C3.39893 65.2403 5.09128 62.6298 7.25885 60.4465C6.84833 59.9977 6.45999 59.523 6.09016 59.0298C6.21643 59.3955 6.38004 59.7473 6.57835 60.0793C4.41483 60.5615 0.531586 62.4344 1.17879 69.7221C-2.23848 63.5507 2.59895 59.4414 5.24696 57.7651C3.41765 54.863 2.38666 51.5272 2.2587 48.0964C1.88887 39.0396 7.72115 31.2253 15.8353 28.974C17.4737 23.092 23.1099 23.1365 26.0834 23.6112C27.9522 21.4441 30.2442 19.6842 32.8179 18.4403C35.3915 17.1964 38.1922 16.4949 41.0468 16.3791C43.4001 16.2858 45.7518 16.5981 47.9997 17.3026C52.0309 14.5322 55.4445 16.253 57.7004 18.3596C76.6544 -0.195272 97.4945 1.87421 108.571 4.93022C108.593 4.91168 108.571 4.89684 108.508 4.88572C121.659 1.17697 137.181 -3.39592 152.452 3.79534C159.072 5.7684 165.488 9.64033 171.11 16.2493C178.643 22.7063 181.854 32.4566 175.341 45.9861C175.341 45.9861 188.692 68.3684 181.817 99.3216C181.817 99.3216 183.362 104.098 190.826 97.7269C190.826 97.7269 189.498 103.857 181.883 105.185C181.883 105.185 191.033 118.655 196.307 123.065C201.58 127.475 201.447 134.317 194.343 137.729ZM24.4746 25.7252C22.4738 25.0724 19.4966 25.1207 16.4455 28.848C18.5415 28.3411 20.7114 28.218 22.851 28.4845C23.3244 27.5215 23.8671 26.5944 24.4746 25.7104V25.7252ZM56.3173 19.7912C55.0265 18.1482 52.6559 16.7315 48.3141 17.4324C50.7679 18.2441 53.0519 19.5012 55.0524 21.1412C55.474 20.659 55.8956 20.1991 56.3173 19.7615V19.7912ZM115.557 7.41508C122.773 4.51113 131.763 1.97806 140.991 2.11157C133.05 0.783839 122.939 1.58493 108.856 5.02665C111.144 5.65939 113.384 6.45763 115.557 7.41508ZM159.767 9.84061C150.521 3.96966 136.649 0.761586 116.648 7.84901C119.491 7.53548 122.352 7.43012 125.21 7.53376C125.674 7.5692 126.132 7.67163 126.567 7.83788C135.628 5.33448 148.872 5.81661 159.767 9.84061Z" fill="#EE72BD"/>
</svg>
